<svg width="138" height="84" viewBox="0 0 138 84" fill="none" xmlns="http://www.w3.org/2000/svg">
<g clip-path="url(#clip0_304_14)">
<path d="M78.5556 7.77777H47.4444C46.2657 7.77777 45.1352 8.24602 44.3017 9.07952C43.4683 9.91301 43 11.0435 43 12.2222V28.8889C43 30.0676 43.4683 31.1981 44.3017 32.0316C45.1352 32.8651 46.2657 33.3333 47.4444 33.3333H60.1289C60.7067 33.9955 61.77 34.4444 63 34.4444C64.23 34.4444 65.2944 33.9955 65.8711 33.3333H78.5556C79.7343 33.3333 80.8648 32.8651 81.6983 32.0316C82.5317 31.1981 83 30.0676 83 28.8889V12.2222C83 11.0435 82.5317 9.91301 81.6983 9.07952C80.8648 8.24602 79.7343 7.77777 78.5556 7.77777Z" fill="#226699"/>
<path d="M65.2218 30C65.2218 30.5894 64.9877 31.1546 64.5709 31.5713C64.1542 31.9881 63.5889 32.2222 62.9996 32.2222C62.4102 32.2222 61.845 31.9881 61.4282 31.5713C61.0115 31.1546 60.7773 30.5894 60.7773 30V9.99999C60.7773 9.41062 61.0115 8.84539 61.4282 8.42864C61.845 8.0119 62.4102 7.77777 62.9996 7.77777C63.5889 7.77777 64.1542 8.0119 64.5709 8.42864C64.9877 8.84539 65.2218 9.41062 65.2218 9.99999V30Z" fill="#292F33"/>
<path d="M63.0004 28.8889C63.0004 29.4783 62.7663 30.0435 62.3496 30.4603C61.9328 30.877 61.3676 31.1111 60.7782 31.1111H47.4449C46.8555 31.1111 46.2903 30.877 45.8735 30.4603C45.4568 30.0435 45.2227 29.4783 45.2227 28.8889V8.88891C45.2227 8.29954 45.4568 7.73431 45.8735 7.31756C46.2903 6.90081 46.8555 6.66669 47.4449 6.66669H60.7782C61.3676 6.66669 61.9328 6.90081 62.3496 7.31756C62.7663 7.73431 63.0004 8.29954 63.0004 8.88891V28.8889Z" fill="#99AAB5"/>
<path d="M62.9999 28.8889C61.8899 26.6689 58.9366 26.6667 58.5554 26.6667C56.3332 26.6667 52.9999 28.8889 49.6666 28.8889C48.5554 28.8889 47.4443 27.8933 47.4443 26.6667V8.8889C47.4443 7.66224 48.5554 6.66668 49.6666 6.66668C53.2832 6.66668 56.3332 4.44446 58.5554 4.44446C61.8888 4.44446 62.9999 6.55112 62.9999 7.77779V28.8889Z" fill="#E1E8ED"/>
<path d="M80.7778 28.8889C80.7778 29.4783 80.5437 30.0435 80.1269 30.4603C79.7102 30.877 79.1449 31.1111 78.5556 31.1111H65.2222C64.6329 31.1111 64.0676 30.877 63.6509 30.4603C63.2341 30.0435 63 29.4783 63 28.8889V8.88891C63 8.29954 63.2341 7.73431 63.6509 7.31756C64.0676 6.90081 64.6329 6.66669 65.2222 6.66669H78.5556C79.1449 6.66669 79.7102 6.90081 80.1269 7.31756C80.5437 7.73431 80.7778 8.29954 80.7778 8.88891V28.8889Z" fill="#99AAB5"/>
<path d="M63 28.8889C64.11 26.6689 67.0633 26.6667 67.4444 26.6667C69.6667 26.6667 73 28.8889 76.3333 28.8889C77.4444 28.8889 78.5556 27.8933 78.5556 26.6667V8.8889C78.5556 7.66224 77.4444 6.66668 76.3333 6.66668C72.7156 6.66668 69.6667 4.44446 67.4444 4.44446C64.1111 4.44446 63 6.55112 63 7.77779V28.8889Z" fill="#CCD6DD"/>
</g>
<path d="M21.4228 48.46L21.4028 46.6V45.66C21.3494 45.3267 21.0628 45.1333 20.5428 45.08L19.5428 44.98V44.24H23.3228C23.4828 44.7067 26.3428 48.5667 31.9028 55.82C31.8494 55.0733 31.8228 53.7467 31.8228 51.84C31.8228 49.92 31.7961 48.08 31.7428 46.32C31.7294 45.8533 31.6294 45.54 31.4428 45.38C31.2561 45.2067 30.7561 45.08 29.9428 45V44.24H34.7828V44.96C33.8894 45.04 33.3494 45.22 33.1628 45.5L33.0428 46.12C32.9494 49.36 32.9028 52.56 32.9028 55.72L32.9428 59H31.7628C31.2294 58.2 30.5561 57.2867 29.7428 56.26C28.9294 55.22 28.2694 54.38 27.7628 53.74C26.7494 52.4333 25.0028 50.2067 22.5228 47.06V53.2C22.5894 55.7467 22.6228 57.1467 22.6228 57.4C22.6228 57.6533 22.7694 57.84 23.0628 57.96C23.3694 58.08 23.7961 58.1667 24.3428 58.22V59H19.6228V58.28C20.6628 58.1867 21.2161 57.8933 21.2828 57.4C21.3761 56.7333 21.4228 54.2667 21.4228 50V48.46ZM36.3696 57.82C36.0896 57.4333 35.8563 56.9 35.6696 56.22C35.483 55.5267 35.3896 54.66 35.3896 53.62C35.3896 52.5667 35.663 51.5933 36.2096 50.7C36.5696 50.14 37.1963 49.6333 38.0896 49.18C38.983 48.7133 39.723 48.48 40.3096 48.48C41.4963 48.48 42.5096 48.86 43.3496 49.62C44.1896 50.38 44.6096 51.5667 44.6096 53.18C44.6096 54.78 44.3163 56.0267 43.7296 56.92C42.943 57.9733 42.1763 58.6667 41.4296 59C40.923 59.2267 40.3963 59.34 39.8496 59.34C39.303 59.34 38.8563 59.3 38.5096 59.22C38.163 59.1533 37.7896 59 37.3896 58.76C37.003 58.52 36.663 58.2067 36.3696 57.82ZM37.2896 53.88C37.2896 55.32 37.563 56.3533 38.1096 56.98C38.6696 57.6067 39.4763 57.92 40.5296 57.92C40.9296 57.92 41.223 57.8867 41.4096 57.82C42.3296 57.46 42.7896 56.0733 42.7896 53.66C42.7896 52.5267 42.6363 51.7 42.3296 51.18C42.0363 50.6467 41.523 50.2667 40.7896 50.04C40.4163 49.9467 40.0763 49.9 39.7696 49.9C39.463 49.9 39.2363 49.9067 39.0896 49.92C38.9563 49.9333 38.7763 49.9733 38.5496 50.04C38.323 50.1067 38.1496 50.22 38.0296 50.38C37.9096 50.5267 37.783 50.7333 37.6496 51C37.4096 51.48 37.2896 52.44 37.2896 53.88ZM47.0017 55.24L47.0617 50.04H45.3217V49.44L47.0617 49.1V47.26L48.6017 46.78C48.8017 46.78 48.9017 46.88 48.9017 47.08L48.8617 48.3V48.92H51.4017L51.3417 50.04H48.8617L48.8017 54.98C48.8017 56.0067 48.8617 56.7467 48.9817 57.2C49.115 57.6533 49.355 57.88 49.7017 57.88C50.0483 57.88 50.5483 57.6867 51.2017 57.3L51.6217 57.7C50.595 58.7667 49.755 59.3 49.1017 59.3C48.235 59.3 47.6683 59.0067 47.4017 58.42C47.135 57.8333 47.0017 56.7733 47.0017 55.24ZM52.8609 51.02C53.0742 50.5267 53.5876 49.9933 54.4009 49.42C55.2142 48.8333 55.9476 48.54 56.6009 48.54C57.2676 48.54 57.8342 48.6133 58.3009 48.76C58.7676 48.9067 59.1342 49.1267 59.4009 49.42C59.6676 49.7 59.8809 49.98 60.0409 50.26C60.2142 50.5267 60.3276 50.8667 60.3809 51.28C60.4876 51.9467 60.5409 52.4533 60.5409 52.8V53.38C60.1142 53.6467 59.4142 53.78 58.4409 53.78H54.3409C54.3409 55.2067 54.4476 56.12 54.6609 56.52C54.9809 57.1067 55.3809 57.4733 55.8609 57.62C56.1676 57.7133 56.5276 57.76 56.9409 57.76C58.1009 57.76 59.1609 57.2867 60.1209 56.34L60.5609 56.8C60.5076 56.8533 60.3809 56.9867 60.1809 57.2C59.9809 57.4 59.8476 57.5333 59.7809 57.6C59.7142 57.6667 59.5876 57.7933 59.4009 57.98C59.2142 58.1533 59.0676 58.2733 58.9609 58.34C58.8676 58.4067 58.7276 58.5067 58.5409 58.64C58.3676 58.7733 58.2142 58.8667 58.0809 58.92C57.9609 58.9733 57.8076 59.04 57.6209 59.12C57.3142 59.24 56.9542 59.3 56.5409 59.3C55.7409 59.3 55.0542 59.1467 54.4809 58.84C53.9209 58.52 53.5009 58.0933 53.2209 57.56C52.6876 56.5867 52.4209 55.4267 52.4209 54.08C52.4209 52.7333 52.5676 51.7133 52.8609 51.02ZM54.3809 52.88H55.5209C57.2942 52.88 58.3476 52.76 58.6809 52.52C58.6809 51.9467 58.5876 51.4533 58.4009 51.04C58.0542 50.24 57.4409 49.84 56.5609 49.84C55.6809 49.84 55.0942 50.0667 54.8009 50.52C54.5209 50.96 54.3809 51.7467 54.3809 52.88ZM63.7968 54.36C63.3168 54.1733 62.9035 53.8733 62.5568 53.46C62.2235 53.0467 62.0568 52.5133 62.0568 51.86C62.0568 51.2067 62.1702 50.7067 62.3968 50.36C62.8768 49.5867 63.3302 49.0867 63.7568 48.86C64.1835 48.62 64.7302 48.5 65.3968 48.5C66.0635 48.5 66.6635 48.6133 67.1968 48.84C67.3435 48.8933 67.4502 48.9467 67.5168 49C67.7568 49.1467 67.8768 49.42 67.8768 49.82C67.8768 49.86 67.8702 49.96 67.8568 50.12C67.8302 50.4667 67.8168 51.02 67.8168 51.78H67.0768C67.0635 51.6067 67.0035 51.3533 66.8968 51.02C66.8035 50.6867 66.6968 50.4333 66.5768 50.26C66.3102 49.8733 65.8102 49.68 65.0768 49.68C64.3702 49.68 63.9035 49.8533 63.6768 50.2C63.4902 50.48 63.3968 50.7933 63.3968 51.14C63.3968 51.4733 63.5635 51.7733 63.8968 52.04C64.2302 52.2933 64.6368 52.5 65.1168 52.66C65.5968 52.82 66.0768 53 66.5568 53.2C67.0502 53.3867 67.4635 53.7067 67.7968 54.16C68.1302 54.6 68.2968 55.1667 68.2968 55.86C68.2968 56.5533 68.1968 57.0667 67.9968 57.4C67.6368 57.9733 67.2102 58.4533 66.7168 58.84C66.5168 58.9867 66.2035 59.1067 65.7768 59.2C65.3502 59.2933 65.0302 59.34 64.8168 59.34C63.3902 59.34 62.5368 59.1 62.2568 58.62C62.1502 58.4467 62.0968 58.22 62.0968 57.94C62.0968 56.86 62.1235 56.2 62.1768 55.96C62.2435 55.7067 62.3835 55.58 62.5968 55.58C62.8235 55.58 62.9635 55.6733 63.0168 55.86C63.0702 56.0467 63.1168 56.3067 63.1568 56.64C63.3035 57.5867 63.9568 58.06 65.1168 58.06C65.7035 58.06 66.1635 57.9267 66.4968 57.66C66.8302 57.3933 66.9968 57.0333 66.9968 56.58C66.9968 56.1133 66.8235 55.7467 66.4768 55.48C66.1435 55.2133 65.7302 55.0067 65.2368 54.86C64.7568 54.7 64.2768 54.5333 63.7968 54.36ZM73.2512 51.6L73.2112 57.34C73.2112 57.7533 73.4912 58.0267 74.0512 58.16C74.2779 58.2 74.5979 58.2333 75.0112 58.26V59H69.4712V58.26C69.8712 58.2333 70.1779 58.2 70.3912 58.16C70.6179 58.12 70.8179 58.0333 70.9912 57.9C71.1779 57.7667 71.2712 57.58 71.2712 57.34C71.2712 52.7267 71.2245 48.8733 71.1312 45.78C71.1179 45.4867 71.0112 45.2933 70.8112 45.2C70.6245 45.0933 70.2712 45.0267 69.7512 45L69.4712 44.98V44.24H75.0112V44.98L74.7312 45C74.2112 45.0267 73.8512 45.0933 73.6512 45.2C73.4645 45.2933 73.3645 45.4867 73.3512 45.78C73.3112 48.14 73.2845 49.7933 73.2712 50.74H81.4912C81.4779 49.1267 81.4445 47.4733 81.3912 45.78C81.3779 45.4867 81.2712 45.2933 81.0712 45.2C80.8845 45.0933 80.5312 45.0267 80.0112 45L79.7312 44.98V44.24H85.2712V44.98L84.9912 45C84.4712 45.0267 84.1112 45.0933 83.9112 45.2C83.7245 45.2933 83.6245 45.4867 83.6112 45.78C83.5179 48.4467 83.4712 52.3 83.4712 57.34C83.4712 57.7533 83.7579 58.0267 84.3312 58.16C84.5445 58.2 84.8579 58.2333 85.2712 58.26V59H79.7312V58.26C80.1312 58.2333 80.4379 58.2 80.6512 58.16C80.8779 58.12 81.0779 58.0333 81.2512 57.9C81.4379 57.7667 81.5312 57.58 81.5312 57.34C81.5312 55.5 81.5179 53.5867 81.4912 51.6H73.2512ZM93.6839 56.04L93.7239 51.3C93.7239 50.34 93.6372 49.8133 93.4639 49.72C93.3705 49.6667 93.2039 49.64 92.9639 49.64H92.3239L92.2839 48.98C93.3239 48.8867 94.0705 48.7867 94.5239 48.68C94.9905 48.56 95.2439 48.5 95.2839 48.5C95.5239 48.5 95.6439 48.6 95.6439 48.8C95.6439 50.48 95.6172 52.1133 95.5639 53.7C95.5105 55.2867 95.4839 56.2267 95.4839 56.52C95.4839 56.8133 95.6305 57.2 95.9239 57.68C96.2305 58.1467 96.3839 58.42 96.3839 58.5C96.3839 58.5667 96.3239 58.62 96.2039 58.66C95.2705 58.9667 94.7439 59.12 94.6239 59.12C94.5172 59.12 94.4039 59.0267 94.2839 58.84C94.1772 58.64 94.0772 58.4 93.9839 58.12C93.8905 57.84 93.8372 57.6933 93.8239 57.68C93.0239 58.24 92.2905 58.6333 91.6239 58.86C90.9572 59.0733 90.4172 59.18 90.0039 59.18C89.6039 59.18 89.1772 58.9867 88.7239 58.6C88.2839 58.2133 87.9905 57.7333 87.8439 57.16C87.7105 56.7333 87.6439 55.9067 87.6439 54.68V51.46C87.6439 51.1267 87.5839 50.6667 87.4639 50.08C87.4372 49.9867 87.3505 49.9067 87.2039 49.84C87.0572 49.7733 86.9439 49.74 86.8639 49.74C86.7839 49.7267 86.6105 49.72 86.3439 49.72L86.3039 49.04C87.1572 48.9467 87.8305 48.8333 88.3239 48.7C88.8172 48.5667 89.0905 48.5 89.1439 48.5C89.3839 48.5 89.5039 48.6 89.5039 48.8L89.4239 54.64C89.4239 55.6267 89.4772 56.28 89.5839 56.6C89.7039 56.92 89.8839 57.1667 90.1239 57.34C90.3772 57.5133 90.6239 57.6 90.8639 57.6C91.1172 57.6 91.4639 57.5533 91.9039 57.46C92.3572 57.3667 92.7239 57.2467 93.0039 57.1C93.2972 56.94 93.4839 56.8067 93.5639 56.7C93.6439 56.58 93.6839 56.36 93.6839 56.04ZM97.1771 43.54C98.1638 43.4467 98.8971 43.3467 99.3771 43.24C99.8705 43.12 100.137 43.06 100.177 43.06C100.404 43.06 100.517 43.16 100.517 43.36V44.22L100.437 49.76C102.024 48.8933 103.05 48.46 103.517 48.46C105.01 48.46 106.004 48.9067 106.497 49.8C106.937 50.5867 107.157 51.7867 107.157 53.4C107.157 55.0133 106.87 56.2533 106.297 57.12C106.15 57.32 105.837 57.6333 105.357 58.06C104.89 58.4867 104.43 58.8 103.977 59C103.524 59.2 102.95 59.3 102.257 59.3C101.577 59.3 100.877 59.1867 100.157 58.96C99.4371 58.72 98.9505 58.42 98.6971 58.06C98.6838 56.42 98.6771 54.6 98.6771 52.6C98.6771 47.4933 98.6038 44.7933 98.4571 44.5C98.3771 44.3133 98.1105 44.2133 97.6571 44.2H97.2171L97.1771 43.54ZM100.417 51.94C100.404 52.74 100.397 53.76 100.397 55C100.397 56.2267 100.464 56.9067 100.597 57.04C100.757 57.24 101.097 57.44 101.617 57.64C102.137 57.8267 102.65 57.92 103.157 57.92C103.664 57.92 104.057 57.84 104.337 57.68C104.63 57.5067 104.844 57.1867 104.977 56.72C105.124 56.2533 105.224 55.6333 105.277 54.86C105.344 54.0867 105.377 53.46 105.377 52.98C105.377 52.5 105.284 52.02 105.097 51.54C104.924 51.0467 104.69 50.6867 104.397 50.46C103.864 50.0467 103.31 49.84 102.737 49.84C102.177 49.84 101.404 50.1 100.417 50.62V51.94Z" fill="black"/>
<path d="M6.27769 73.992C6.27235 74.0133 6.24302 74.024 6.18969 74.024C6.13635 74.024 6.10702 74.0133 6.10169 73.992L4.09369 69.664C3.99235 69.44 3.89635 69.2907 3.80569 69.216C3.72035 69.136 3.59769 69.096 3.43769 69.096C3.42169 69.096 3.41369 69.08 3.41369 69.048C3.41369 69.016 3.42169 69 3.43769 69L3.68569 69.008C3.82435 69.0187 3.95502 69.024 4.07769 69.024C4.31769 69.024 4.55502 69.0187 4.78969 69.008C4.86435 69.0027 4.96569 69 5.09369 69C5.10969 69 5.11769 69.016 5.11769 69.048C5.11769 69.08 5.10969 69.096 5.09369 69.096C4.93902 69.096 4.82702 69.112 4.75769 69.144C4.68835 69.176 4.65369 69.2373 4.65369 69.328C4.65369 69.4027 4.69102 69.5227 4.76569 69.688L6.46169 73.312L6.15769 73.752L7.16569 71.192L7.29369 71.376L6.27769 73.992ZM10.8617 69C10.8777 69 10.8857 69.016 10.8857 69.048C10.8857 69.08 10.8777 69.096 10.8617 69.096C10.483 69.096 10.195 69.3387 9.99769 69.824L8.36569 73.992C8.36035 74.0133 8.33102 74.024 8.27769 74.024C8.22435 74.024 8.19502 74.0133 8.18969 73.992L6.18169 69.664C6.09102 69.4667 5.99769 69.3227 5.90169 69.232C5.81102 69.1413 5.69902 69.096 5.56569 69.096C5.54969 69.096 5.54169 69.08 5.54169 69.048C5.54169 69.016 5.54969 69 5.56569 69L5.81369 69.008C5.94169 69.0187 6.05902 69.024 6.16569 69.024C6.36835 69.024 6.55502 69.0187 6.72569 69.008C6.77902 69.0027 6.85102 69 6.94169 69C6.95769 69 6.96569 69.016 6.96569 69.048C6.96569 69.08 6.95769 69.096 6.94169 69.096C6.85102 69.096 6.78435 69.1067 6.74169 69.128C6.70435 69.144 6.68569 69.176 6.68569 69.224C6.68569 69.2987 6.74169 69.4533 6.85369 69.688L8.54969 73.312L8.24569 73.752L9.78969 69.824C9.83769 69.696 9.86169 69.5867 9.86169 69.496C9.86169 69.368 9.81369 69.2693 9.71769 69.2C9.62702 69.1307 9.49102 69.096 9.30969 69.096C9.29369 69.096 9.28569 69.08 9.28569 69.048C9.28569 69.016 9.29369 69 9.30969 69L9.65369 69.008C9.83502 69.0187 10.0004 69.024 10.1497 69.024C10.2617 69.024 10.387 69.0187 10.5257 69.008L10.8617 69ZM7.75769 69.784C7.83235 69.592 7.86969 69.4453 7.86969 69.344C7.86969 69.1787 7.77102 69.096 7.57369 69.096C7.56302 69.096 7.55769 69.08 7.55769 69.048C7.55769 69.016 7.56302 69 7.57369 69L7.73369 69.008C7.84035 69.0187 7.96302 69.024 8.10169 69.024C8.19769 69.024 8.31502 69.0187 8.45369 69.008L8.77369 69C8.78435 69 8.78969 69.016 8.78969 69.048C8.78969 69.08 8.78435 69.096 8.77369 69.096C8.59235 69.096 8.43502 69.152 8.30169 69.264C8.16835 69.376 8.05102 69.5627 7.94969 69.824L7.33369 71.376L7.20569 71.192L7.75769 69.784ZM15.3241 69.664C15.3241 69.504 15.3081 69.3867 15.2761 69.312C15.2441 69.232 15.1801 69.176 15.0841 69.144C14.9881 69.112 14.8388 69.096 14.6361 69.096C14.6201 69.096 14.6121 69.08 14.6121 69.048C14.6121 69.016 14.6201 69 14.6361 69L15.0121 69.008C15.2575 69.0187 15.4681 69.024 15.6441 69.024C15.7935 69.024 15.9855 69.0187 16.2201 69.008L16.6281 69C16.6441 69 16.6521 69.016 16.6521 69.048C16.6521 69.08 16.6441 69.096 16.6281 69.096C16.4308 69.096 16.2841 69.112 16.1881 69.144C16.0975 69.1707 16.0361 69.2213 16.0041 69.296C15.9721 69.3707 15.9561 69.488 15.9561 69.648V73.352C15.9561 73.512 15.9721 73.632 16.0041 73.712C16.0361 73.7867 16.0975 73.8373 16.1881 73.864C16.2841 73.8907 16.4308 73.904 16.6281 73.904C16.6441 73.904 16.6521 73.92 16.6521 73.952C16.6521 73.984 16.6441 74 16.6281 74C16.4575 74 16.3215 73.9973 16.2201 73.992L15.6441 73.984L15.0121 73.992C14.9215 73.9973 14.7961 74 14.6361 74C14.6201 74 14.6121 73.984 14.6121 73.952C14.6121 73.92 14.6201 73.904 14.6361 73.904C14.8441 73.904 14.9935 73.8907 15.0841 73.864C15.1801 73.8373 15.2441 73.7867 15.2761 73.712C15.3081 73.6373 15.3241 73.5173 15.3241 73.352V69.664ZM12.0681 71.304H15.6041V71.488H12.0681V71.304ZM11.7721 69.648C11.7721 69.488 11.7561 69.3707 11.7241 69.296C11.6921 69.2213 11.6308 69.1707 11.5401 69.144C11.4495 69.112 11.3055 69.096 11.1081 69.096C11.0921 69.096 11.0841 69.08 11.0841 69.048C11.0841 69.016 11.0921 69 11.1081 69L11.5161 69.008C11.7401 69.0187 11.9268 69.024 12.0761 69.024C12.2415 69.024 12.4468 69.0187 12.6921 69.008L13.1001 69C13.1108 69 13.1161 69.016 13.1161 69.048C13.1161 69.08 13.1108 69.096 13.1001 69.096C12.8975 69.096 12.7481 69.112 12.6521 69.144C12.5561 69.176 12.4895 69.232 12.4521 69.312C12.4201 69.3867 12.4041 69.504 12.4041 69.664V73.352C12.4041 73.512 12.4201 73.632 12.4521 73.712C12.4895 73.7867 12.5535 73.8373 12.6441 73.864C12.7401 73.8907 12.8921 73.904 13.1001 73.904C13.1108 73.904 13.1161 73.92 13.1161 73.952C13.1161 73.984 13.1108 74 13.1001 74C12.9241 74 12.7881 73.9973 12.6921 73.992L12.0761 73.984L11.5081 73.992C11.4068 73.9973 11.2681 74 11.0921 74C11.0815 74 11.0761 73.984 11.0761 73.952C11.0761 73.92 11.0815 73.904 11.0921 73.904C11.2895 73.904 11.4335 73.8907 11.5241 73.864C11.6201 73.8373 11.6841 73.7867 11.7161 73.712C11.7535 73.632 11.7721 73.512 11.7721 73.352V69.648ZM17.2581 74C17.2421 74 17.2341 73.984 17.2341 73.952C17.2341 73.92 17.2421 73.904 17.2581 73.904C17.4501 73.904 17.5887 73.8907 17.6741 73.864C17.7647 73.8373 17.8261 73.7867 17.8581 73.712C17.8901 73.632 17.9061 73.512 17.9061 73.352V69.648C17.9061 69.488 17.8901 69.3707 17.8581 69.296C17.8261 69.2213 17.7647 69.1707 17.6741 69.144C17.5887 69.112 17.4501 69.096 17.2581 69.096C17.2421 69.096 17.2341 69.08 17.2341 69.048C17.2341 69.016 17.2421 69 17.2581 69H20.5221C20.5754 69 20.6021 69.024 20.6021 69.072L20.6181 70.08C20.6181 70.096 20.6021 70.1067 20.5701 70.112C20.5434 70.112 20.5274 70.104 20.5221 70.088C20.4847 69.7947 20.3807 69.5707 20.2101 69.416C20.0394 69.2613 19.8154 69.184 19.5381 69.184H19.1301C18.8954 69.184 18.7381 69.2187 18.6581 69.288C18.5781 69.3573 18.5381 69.488 18.5381 69.68V73.32C18.5381 73.512 18.5727 73.6427 18.6421 73.712C18.7167 73.7813 18.8634 73.816 19.0821 73.816H19.6101C19.9087 73.816 20.1567 73.728 20.3541 73.552C20.5567 73.3707 20.6954 73.1147 20.7701 72.784C20.7701 72.7733 20.7807 72.768 20.8021 72.768C20.8181 72.768 20.8314 72.7733 20.8421 72.784C20.8581 72.7893 20.8661 72.7947 20.8661 72.8C20.8127 73.184 20.7861 73.544 20.7861 73.88C20.7861 73.9227 20.7781 73.9547 20.7621 73.976C20.7461 73.992 20.7141 74 20.6661 74H17.2581ZM20.2181 72.16C20.2181 71.9307 20.1514 71.7627 20.0181 71.656C19.8901 71.544 19.6847 71.488 19.4021 71.488H18.2341V71.304H19.4181C19.6901 71.304 19.8901 71.2587 20.0181 71.168C20.1461 71.072 20.2101 70.9253 20.2101 70.728C20.2101 70.7173 20.2234 70.712 20.2501 70.712C20.2821 70.712 20.2981 70.7173 20.2981 70.728L20.2901 71.4L20.2981 71.76C20.3087 71.9307 20.3141 72.064 20.3141 72.16C20.3141 72.1707 20.2981 72.176 20.2661 72.176C20.2341 72.176 20.2181 72.1707 20.2181 72.16ZM25.626 74C25.4927 74 25.2447 73.776 24.882 73.328C24.5247 72.88 24.09 72.2533 23.578 71.448L24.114 71.28C24.5673 71.9467 24.9487 72.4667 25.258 72.84C25.5673 73.2133 25.8393 73.4853 26.074 73.656C26.314 73.8213 26.546 73.904 26.77 73.904C26.786 73.904 26.794 73.92 26.794 73.952C26.794 73.984 26.786 74 26.77 74H25.626ZM23.698 68.976C24.1407 68.976 24.482 69.0693 24.722 69.256C24.962 69.4427 25.082 69.696 25.082 70.016C25.082 70.304 24.9967 70.568 24.826 70.808C24.6607 71.0427 24.4393 71.2293 24.162 71.368C23.8847 71.5013 23.5887 71.568 23.274 71.568C23.162 71.568 23.0313 71.5627 22.882 71.552V73.352C22.882 73.512 22.898 73.632 22.93 73.712C22.962 73.7867 23.0207 73.8373 23.106 73.864C23.1967 73.8907 23.338 73.904 23.53 73.904C23.546 73.904 23.554 73.92 23.554 73.952C23.554 73.984 23.546 74 23.53 74C23.3647 74 23.234 73.9973 23.138 73.992L22.562 73.984L22.002 73.992C21.9007 73.9973 21.7647 74 21.594 74C21.578 74 21.57 73.984 21.57 73.952C21.57 73.92 21.578 73.904 21.594 73.904C21.786 73.904 21.9273 73.8907 22.018 73.864C22.1087 73.8373 22.17 73.7867 22.202 73.712C22.234 73.632 22.25 73.512 22.25 73.352V69.648C22.25 69.488 22.234 69.3707 22.202 69.296C22.17 69.2213 22.1087 69.1707 22.018 69.144C21.9327 69.112 21.794 69.096 21.602 69.096C21.5913 69.096 21.586 69.08 21.586 69.048C21.586 69.016 21.5913 69 21.602 69L22.002 69.008C22.2367 69.0187 22.4233 69.024 22.562 69.024C22.674 69.024 22.7807 69.0213 22.882 69.016C22.9833 69.0107 23.0713 69.0053 23.146 69C23.3487 68.984 23.5327 68.976 23.698 68.976ZM24.426 70.272C24.426 69.8453 24.3433 69.5467 24.178 69.376C24.0127 69.2 23.77 69.112 23.45 69.112C23.242 69.112 23.0953 69.152 23.01 69.232C22.9247 69.3067 22.882 69.4507 22.882 69.664V71.352C23.0367 71.368 23.194 71.376 23.354 71.376C23.738 71.376 24.0127 71.288 24.178 71.112C24.3433 70.9307 24.426 70.6507 24.426 70.272ZM27.0393 74C27.0233 74 27.0153 73.984 27.0153 73.952C27.0153 73.92 27.0233 73.904 27.0393 73.904C27.2313 73.904 27.37 73.8907 27.4553 73.864C27.546 73.8373 27.6073 73.7867 27.6393 73.712C27.6713 73.632 27.6873 73.512 27.6873 73.352V69.648C27.6873 69.488 27.6713 69.3707 27.6393 69.296C27.6073 69.2213 27.546 69.1707 27.4553 69.144C27.37 69.112 27.2313 69.096 27.0393 69.096C27.0233 69.096 27.0153 69.08 27.0153 69.048C27.0153 69.016 27.0233 69 27.0393 69H30.3033C30.3566 69 30.3833 69.024 30.3833 69.072L30.3993 70.08C30.3993 70.096 30.3833 70.1067 30.3513 70.112C30.3246 70.112 30.3086 70.104 30.3033 70.088C30.266 69.7947 30.162 69.5707 29.9913 69.416C29.8206 69.2613 29.5966 69.184 29.3193 69.184H28.9113C28.6766 69.184 28.5193 69.2187 28.4393 69.288C28.3593 69.3573 28.3193 69.488 28.3193 69.68V73.32C28.3193 73.512 28.354 73.6427 28.4233 73.712C28.498 73.7813 28.6446 73.816 28.8633 73.816H29.3913C29.69 73.816 29.938 73.728 30.1353 73.552C30.338 73.3707 30.4766 73.1147 30.5513 72.784C30.5513 72.7733 30.562 72.768 30.5833 72.768C30.5993 72.768 30.6126 72.7733 30.6233 72.784C30.6393 72.7893 30.6473 72.7947 30.6473 72.8C30.594 73.184 30.5673 73.544 30.5673 73.88C30.5673 73.9227 30.5593 73.9547 30.5433 73.976C30.5273 73.992 30.4953 74 30.4473 74H27.0393ZM29.9993 72.16C29.9993 71.9307 29.9326 71.7627 29.7993 71.656C29.6713 71.544 29.466 71.488 29.1833 71.488H28.0153V71.304H29.1993C29.4713 71.304 29.6713 71.2587 29.7993 71.168C29.9273 71.072 29.9913 70.9253 29.9913 70.728C29.9913 70.7173 30.0046 70.712 30.0313 70.712C30.0633 70.712 30.0793 70.7173 30.0793 70.728L30.0713 71.4L30.0793 71.76C30.09 71.9307 30.0953 72.064 30.0953 72.16C30.0953 72.1707 30.0793 72.176 30.0473 72.176C30.0153 72.176 29.9993 72.1707 29.9993 72.16ZM36.4903 69.936C36.6183 69.728 36.6823 69.5547 36.6823 69.416C36.6823 69.2027 36.5356 69.096 36.2423 69.096C36.2316 69.096 36.2263 69.08 36.2263 69.048C36.2263 69.016 36.2316 69 36.2423 69L36.6343 69.008C36.8476 69.0187 37.0423 69.024 37.2183 69.024C37.3089 69.024 37.4183 69.0187 37.5463 69.008L37.8423 69C37.8529 69 37.8583 69.016 37.8583 69.048C37.8583 69.08 37.8529 69.096 37.8423 69.096C37.6556 69.096 37.4583 69.176 37.2503 69.336C37.0423 69.496 36.8556 69.7093 36.6903 69.976L35.5063 71.848L35.3543 71.72L36.4903 69.936ZM33.7863 69.776C33.6156 69.52 33.4636 69.344 33.3303 69.248C33.2023 69.1467 33.0636 69.096 32.9143 69.096C32.8982 69.096 32.8902 69.08 32.8902 69.048C32.8902 69.016 32.8982 69 32.9143 69C32.9729 69 33.0663 69.0053 33.1943 69.016L33.4583 69.024C33.6343 69.024 33.8769 69.0187 34.1863 69.008L34.6503 69C34.6609 69 34.6663 69.016 34.6663 69.048C34.6663 69.08 34.6609 69.096 34.6503 69.096C34.3943 69.096 34.2663 69.16 34.2663 69.288C34.2663 69.3467 34.2983 69.4213 34.3623 69.512L35.6583 71.456L35.1543 71.824L33.7863 69.776ZM35.6983 71.448V73.352C35.6983 73.5173 35.7116 73.6373 35.7383 73.712C35.7703 73.7867 35.8289 73.8373 35.9143 73.864C36.0049 73.8907 36.1463 73.904 36.3383 73.904C36.3543 73.904 36.3623 73.92 36.3623 73.952C36.3623 73.984 36.3543 74 36.3383 74C36.1729 74 36.0423 73.9973 35.9463 73.992L35.3703 73.984L34.8103 73.992C34.7143 73.9973 34.5783 74 34.4023 74C34.3916 74 34.3863 73.984 34.3863 73.952C34.3863 73.92 34.3916 73.904 34.4023 73.904C34.5943 73.904 34.7356 73.8907 34.8263 73.864C34.9169 73.8373 34.9783 73.7867 35.0103 73.712C35.0423 73.632 35.0583 73.512 35.0583 73.352V71.52L35.6983 71.448ZM40.4983 74.096C40.0023 74.096 39.5596 73.9813 39.1703 73.752C38.7863 73.5173 38.4876 73.2027 38.2743 72.808C38.0663 72.408 37.9623 71.9733 37.9623 71.504C37.9623 70.9547 38.101 70.4853 38.3783 70.096C38.6556 69.7013 39.0103 69.4053 39.4423 69.208C39.8796 69.0107 40.325 68.912 40.7783 68.912C41.285 68.912 41.7303 69.032 42.1143 69.272C42.4983 69.5067 42.7916 69.8187 42.9943 70.208C43.2023 70.5973 43.3063 71.0107 43.3063 71.448C43.3063 71.9333 43.1783 72.3787 42.9223 72.784C42.6663 73.1893 42.3223 73.5093 41.8903 73.744C41.4636 73.9787 40.9996 74.096 40.4983 74.096ZM40.7783 73.92C41.1196 73.92 41.4263 73.832 41.6983 73.656C41.9703 73.48 42.1836 73.224 42.3383 72.888C42.4983 72.5467 42.5783 72.1413 42.5783 71.672C42.5783 71.176 42.4903 70.7333 42.3143 70.344C42.1436 69.9547 41.8956 69.6507 41.5703 69.432C41.2503 69.2133 40.877 69.104 40.4503 69.104C39.8956 69.104 39.4636 69.2933 39.1543 69.672C38.845 70.0453 38.6903 70.5627 38.6903 71.224C38.6903 71.7307 38.7783 72.1893 38.9543 72.6C39.1303 73.0107 39.3756 73.3333 39.6903 73.568C40.0103 73.8027 40.373 73.92 40.7783 73.92ZM48.2713 69.92C48.2713 69.6533 48.21 69.4507 48.0873 69.312C47.9646 69.168 47.7886 69.096 47.5593 69.096C47.5433 69.096 47.5353 69.08 47.5353 69.048C47.5353 69.016 47.5433 69 47.5593 69L47.9193 69.008C48.1113 69.0187 48.2633 69.024 48.3753 69.024C48.4713 69.024 48.61 69.0187 48.7913 69.008L49.1353 69C49.146 69 49.1513 69.016 49.1513 69.048C49.1513 69.08 49.146 69.096 49.1353 69.096C48.922 69.096 48.7593 69.1653 48.6473 69.304C48.5406 69.4427 48.4873 69.648 48.4873 69.92V72.184C48.4873 72.7813 48.3113 73.2507 47.9593 73.592C47.6126 73.9333 47.1486 74.104 46.5673 74.104C46.1726 74.104 45.826 74.0293 45.5273 73.88C45.2286 73.7253 44.9966 73.5067 44.8313 73.224C44.666 72.936 44.5833 72.6 44.5833 72.216V69.648C44.5833 69.488 44.5673 69.3707 44.5353 69.296C44.5033 69.2213 44.442 69.1707 44.3513 69.144C44.266 69.112 44.1273 69.096 43.9353 69.096C43.9193 69.096 43.9113 69.08 43.9113 69.048C43.9113 69.016 43.9193 69 43.9353 69L44.3353 69.008C44.57 69.0187 44.7566 69.024 44.8953 69.024C45.05 69.024 45.2393 69.0187 45.4633 69.008L45.8553 69C45.8713 69 45.8793 69.016 45.8793 69.048C45.8793 69.08 45.8713 69.096 45.8553 69.096C45.6686 69.096 45.53 69.112 45.4393 69.144C45.354 69.176 45.2953 69.232 45.2633 69.312C45.2313 69.3867 45.2153 69.504 45.2153 69.664V71.936C45.2153 72.5653 45.3513 73.0427 45.6233 73.368C45.9006 73.688 46.2873 73.848 46.7833 73.848C47.2473 73.848 47.61 73.704 47.8713 73.416C48.138 73.1227 48.2713 72.7147 48.2713 72.192V69.92ZM53.6729 74C53.5395 74 53.2915 73.776 52.9289 73.328C52.5715 72.88 52.1369 72.2533 51.6249 71.448L52.1609 71.28C52.6142 71.9467 52.9955 72.4667 53.3049 72.84C53.6142 73.2133 53.8862 73.4853 54.1209 73.656C54.3609 73.8213 54.5929 73.904 54.8169 73.904C54.8329 73.904 54.8409 73.92 54.8409 73.952C54.8409 73.984 54.8329 74 54.8169 74H53.6729ZM51.7449 68.976C52.1875 68.976 52.5289 69.0693 52.7689 69.256C53.0089 69.4427 53.1289 69.696 53.1289 70.016C53.1289 70.304 53.0435 70.568 52.8729 70.808C52.7075 71.0427 52.4862 71.2293 52.2089 71.368C51.9315 71.5013 51.6355 71.568 51.3209 71.568C51.2089 71.568 51.0782 71.5627 50.9289 71.552V73.352C50.9289 73.512 50.9449 73.632 50.9769 73.712C51.0089 73.7867 51.0675 73.8373 51.1529 73.864C51.2435 73.8907 51.3849 73.904 51.5769 73.904C51.5929 73.904 51.6009 73.92 51.6009 73.952C51.6009 73.984 51.5929 74 51.5769 74C51.4115 74 51.2809 73.9973 51.1849 73.992L50.6089 73.984L50.0489 73.992C49.9475 73.9973 49.8115 74 49.6409 74C49.6249 74 49.6169 73.984 49.6169 73.952C49.6169 73.92 49.6249 73.904 49.6409 73.904C49.8329 73.904 49.9742 73.8907 50.0649 73.864C50.1555 73.8373 50.2169 73.7867 50.2489 73.712C50.2809 73.632 50.2969 73.512 50.2969 73.352V69.648C50.2969 69.488 50.2809 69.3707 50.2489 69.296C50.2169 69.2213 50.1555 69.1707 50.0649 69.144C49.9795 69.112 49.8409 69.096 49.6489 69.096C49.6382 69.096 49.6329 69.08 49.6329 69.048C49.6329 69.016 49.6382 69 49.6489 69L50.0489 69.008C50.2835 69.0187 50.4702 69.024 50.6089 69.024C50.7209 69.024 50.8275 69.0213 50.9289 69.016C51.0302 69.0107 51.1182 69.0053 51.1929 69C51.3955 68.984 51.5795 68.976 51.7449 68.976ZM52.4729 70.272C52.4729 69.8453 52.3902 69.5467 52.2249 69.376C52.0595 69.2 51.8169 69.112 51.4969 69.112C51.2889 69.112 51.1422 69.152 51.0569 69.232C50.9715 69.3067 50.9289 69.4507 50.9289 69.664V71.352C51.0835 71.368 51.2409 71.376 51.4009 71.376C51.7849 71.376 52.0595 71.288 52.2249 71.112C52.3902 70.9307 52.4729 70.6507 52.4729 70.272ZM57.5932 69.184L57.8012 69.2V73.088C57.8012 73.3653 57.8519 73.5707 57.9532 73.704C58.0599 73.8373 58.2199 73.904 58.4332 73.904C58.4439 73.904 58.4492 73.92 58.4492 73.952C58.4492 73.984 58.4439 74 58.4332 74C58.2945 74 58.1879 73.9973 58.1132 73.992L57.7052 73.984L57.2732 73.992C57.1932 73.9973 57.0759 74 56.9212 74C56.9105 74 56.9052 73.984 56.9052 73.952C56.9052 73.92 56.9105 73.904 56.9212 73.904C57.1505 73.904 57.3185 73.8373 57.4252 73.704C57.5372 73.5707 57.5932 73.3653 57.5932 73.088V69.184ZM61.6412 74.104C61.6412 74.1147 61.6279 74.1227 61.6012 74.128C61.5799 74.1333 61.5639 74.1307 61.5532 74.12L57.7852 69.656C57.6092 69.448 57.4519 69.304 57.3132 69.224C57.1745 69.1387 57.0359 69.096 56.8972 69.096C56.8865 69.096 56.8812 69.08 56.8812 69.048C56.8812 69.016 56.8865 69 56.8972 69L57.2092 69.008C57.2732 69.0133 57.3639 69.016 57.4812 69.016L57.8892 69.008C57.9425 69.0027 58.0039 69 58.0732 69C58.1159 69 58.1479 69.0107 58.1692 69.032C58.1905 69.0533 58.2225 69.096 58.2652 69.16L58.4572 69.416L61.5772 73.176L61.6412 74.104ZM61.6412 74.104L61.4412 73.856V69.92C61.4412 69.6427 61.3905 69.4373 61.2892 69.304C61.1879 69.1653 61.0305 69.096 60.8172 69.096C60.8065 69.096 60.8012 69.08 60.8012 69.048C60.8012 69.016 60.8065 69 60.8172 69L61.1372 69.008C61.2972 69.0187 61.4332 69.024 61.5452 69.024C61.6412 69.024 61.7799 69.0187 61.9612 69.008L62.2972 69C62.3079 69 62.3132 69.016 62.3132 69.048C62.3132 69.08 62.3079 69.096 62.2972 69.096C61.8599 69.096 61.6412 69.3707 61.6412 69.92V74.104ZM65.3889 74.096C64.8929 74.096 64.4503 73.9813 64.0609 73.752C63.6769 73.5173 63.3783 73.2027 63.1649 72.808C62.9569 72.408 62.8529 71.9733 62.8529 71.504C62.8529 70.9547 62.9916 70.4853 63.2689 70.096C63.5463 69.7013 63.9009 69.4053 64.3329 69.208C64.7703 69.0107 65.2156 68.912 65.6689 68.912C66.1756 68.912 66.6209 69.032 67.0049 69.272C67.3889 69.5067 67.6823 69.8187 67.8849 70.208C68.0929 70.5973 68.1969 71.0107 68.1969 71.448C68.1969 71.9333 68.0689 72.3787 67.8129 72.784C67.5569 73.1893 67.2129 73.5093 66.7809 73.744C66.3543 73.9787 65.8903 74.096 65.3889 74.096ZM65.6689 73.92C66.0103 73.92 66.3169 73.832 66.5889 73.656C66.8609 73.48 67.0743 73.224 67.2289 72.888C67.3889 72.5467 67.4689 72.1413 67.4689 71.672C67.4689 71.176 67.3809 70.7333 67.2049 70.344C67.0343 69.9547 66.7863 69.6507 66.4609 69.432C66.1409 69.2133 65.7676 69.104 65.3409 69.104C64.7863 69.104 64.3543 69.2933 64.0449 69.672C63.7356 70.0453 63.5809 70.5627 63.5809 71.224C63.5809 71.7307 63.6689 72.1893 63.8449 72.6C64.0209 73.0107 64.2663 73.3333 64.5809 73.568C64.9009 73.8027 65.2636 73.92 65.6689 73.92ZM69.9904 69.16C69.6598 69.16 69.4011 69.2533 69.2144 69.44C69.0278 69.6213 68.8891 69.9147 68.7984 70.32C68.7931 70.3307 68.7744 70.336 68.7424 70.336C68.7158 70.336 68.7024 70.328 68.7024 70.312C68.7238 70.1627 68.7478 69.92 68.7744 69.584C68.8011 69.248 68.8144 68.9947 68.8144 68.824C68.8144 68.7973 68.8304 68.784 68.8624 68.784C68.8944 68.784 68.9104 68.7973 68.9104 68.824C68.9104 68.9413 69.0571 69 69.3504 69C69.8091 69.016 70.3451 69.024 70.9584 69.024C71.2731 69.024 71.6064 69.0187 71.9584 69.008L72.5024 69C72.6998 69 72.8438 68.9867 72.9344 68.96C73.0251 68.9333 73.0838 68.88 73.1104 68.8C73.1158 68.7787 73.1318 68.768 73.1584 68.768C73.1904 68.768 73.2064 68.7787 73.2064 68.8C73.1904 68.9493 73.1718 69.1893 73.1504 69.52C73.1344 69.8507 73.1264 70.1147 73.1264 70.312C73.1264 70.328 73.1104 70.336 73.0784 70.336C73.0518 70.336 73.0384 70.328 73.0384 70.312C73.0011 69.9013 72.8944 69.608 72.7184 69.432C72.5424 69.2507 72.2811 69.16 71.9344 69.16C71.7371 69.16 71.5958 69.1733 71.5104 69.2C71.4251 69.2213 71.3664 69.2667 71.3344 69.336C71.3024 69.4 71.2864 69.5093 71.2864 69.664V73.352C71.2864 73.5173 71.3024 73.6373 71.3344 73.712C71.3718 73.7867 71.4411 73.8373 71.5424 73.864C71.6438 73.8907 71.8064 73.904 72.0304 73.904C72.0411 73.904 72.0464 73.92 72.0464 73.952C72.0464 73.984 72.0411 74 72.0304 74C71.8438 74 71.6971 73.9973 71.5904 73.992L70.9584 73.984L70.3424 73.992C70.2358 73.9973 70.0864 74 69.8944 74C69.8784 74 69.8704 73.984 69.8704 73.952C69.8704 73.92 69.8784 73.904 69.8944 73.904C70.1131 73.904 70.2731 73.8907 70.3744 73.864C70.4811 73.8373 70.5531 73.7867 70.5904 73.712C70.6278 73.632 70.6464 73.512 70.6464 73.352V69.648C70.6464 69.4987 70.6304 69.392 70.5984 69.328C70.5664 69.2587 70.5051 69.2133 70.4144 69.192C70.3291 69.1707 70.1878 69.16 69.9904 69.16ZM73.8362 74C73.8202 74 73.8122 73.984 73.8122 73.952C73.8122 73.92 73.8202 73.904 73.8362 73.904C74.0282 73.904 74.1669 73.8907 74.2522 73.864C74.3429 73.8373 74.4042 73.7867 74.4362 73.712C74.4682 73.632 74.4842 73.512 74.4842 73.352V69.648C74.4842 69.488 74.4682 69.3707 74.4362 69.296C74.4042 69.2213 74.3429 69.1707 74.2522 69.144C74.1669 69.112 74.0282 69.096 73.8362 69.096C73.8202 69.096 73.8122 69.08 73.8122 69.048C73.8122 69.016 73.8202 69 73.8362 69H77.1002C77.1535 69 77.1802 69.024 77.1802 69.072L77.1962 70.08C77.1962 70.096 77.1802 70.1067 77.1482 70.112C77.1215 70.112 77.1055 70.104 77.1002 70.088C77.0629 69.7947 76.9589 69.5707 76.7882 69.416C76.6175 69.2613 76.3935 69.184 76.1162 69.184H75.7082C75.4735 69.184 75.3162 69.2187 75.2362 69.288C75.1562 69.3573 75.1162 69.488 75.1162 69.68V73.32C75.1162 73.512 75.1509 73.6427 75.2202 73.712C75.2949 73.7813 75.4415 73.816 75.6602 73.816H76.1882C76.4869 73.816 76.7349 73.728 76.9322 73.552C77.1349 73.3707 77.2735 73.1147 77.3482 72.784C77.3482 72.7733 77.3589 72.768 77.3802 72.768C77.3962 72.768 77.4095 72.7733 77.4202 72.784C77.4362 72.7893 77.4442 72.7947 77.4442 72.8C77.3909 73.184 77.3642 73.544 77.3642 73.88C77.3642 73.9227 77.3562 73.9547 77.3402 73.976C77.3242 73.992 77.2922 74 77.2442 74H73.8362ZM76.7962 72.16C76.7962 71.9307 76.7295 71.7627 76.5962 71.656C76.4682 71.544 76.2629 71.488 75.9802 71.488H74.8122V71.304H75.9962C76.2682 71.304 76.4682 71.2587 76.5962 71.168C76.7242 71.072 76.7882 70.9253 76.7882 70.728C76.7882 70.7173 76.8015 70.712 76.8282 70.712C76.8602 70.712 76.8762 70.7173 76.8762 70.728L76.8682 71.4L76.8762 71.76C76.8869 71.9307 76.8922 72.064 76.8922 72.16C76.8922 72.1707 76.8762 72.176 76.8442 72.176C76.8122 72.176 76.7962 72.1707 76.7962 72.16ZM79.0601 69.896C79.0601 70.0987 79.1108 70.2773 79.2121 70.432C79.3135 70.5813 79.4361 70.712 79.5801 70.824C79.7241 70.9307 79.9241 71.0613 80.1801 71.216C80.4468 71.3813 80.6575 71.5253 80.8121 71.648C80.9721 71.7653 81.1081 71.912 81.2201 72.088C81.3321 72.264 81.3881 72.472 81.3881 72.712C81.3881 72.9733 81.3188 73.2107 81.1801 73.424C81.0468 73.632 80.8521 73.7973 80.5961 73.92C80.3455 74.0373 80.0521 74.096 79.7161 74.096C79.5028 74.096 79.2921 74.0693 79.0841 74.016C78.8761 73.968 78.6948 73.896 78.5401 73.8C78.5135 73.784 78.4948 73.7653 78.4841 73.744C78.4735 73.7227 78.4681 73.6907 78.4681 73.648L78.3881 72.504C78.3828 72.4827 78.3935 72.4693 78.4201 72.464C78.4521 72.4587 78.4708 72.4667 78.4761 72.488C78.6041 72.8933 78.7828 73.2373 79.0121 73.52C79.2415 73.8027 79.5401 73.944 79.9081 73.944C80.1588 73.944 80.3695 73.8773 80.5401 73.744C80.7108 73.6053 80.7961 73.3813 80.7961 73.072C80.7961 72.8373 80.7428 72.632 80.6361 72.456C80.5295 72.28 80.3988 72.1333 80.2441 72.016C80.0895 71.8933 79.8841 71.7547 79.6281 71.6C79.3775 71.44 79.1775 71.304 79.0281 71.192C78.8841 71.0747 78.7615 70.9333 78.6601 70.768C78.5588 70.5973 78.5081 70.4 78.5081 70.176C78.5081 69.904 78.5801 69.672 78.7241 69.48C78.8735 69.288 79.0655 69.1467 79.3001 69.056C79.5401 68.96 79.7908 68.912 80.0521 68.912C80.4041 68.912 80.7268 68.9733 81.0201 69.096C81.1001 69.1333 81.1401 69.1813 81.1401 69.24L81.1801 70.24C81.1801 70.2613 81.1641 70.2747 81.1321 70.28C81.1055 70.28 81.0895 70.2693 81.0841 70.248C81.0255 69.96 80.9001 69.688 80.7081 69.432C80.5215 69.176 80.2521 69.048 79.9001 69.048C79.6335 69.048 79.4255 69.128 79.2761 69.288C79.1321 69.448 79.0601 69.6507 79.0601 69.896ZM84.0153 74C83.9993 74 83.9913 73.984 83.9913 73.952C83.9913 73.92 83.9993 73.904 84.0153 73.904C84.2126 73.904 84.3566 73.8907 84.4473 73.864C84.538 73.8373 84.5993 73.7867 84.6313 73.712C84.6686 73.632 84.6873 73.512 84.6873 73.352V69.648C84.6873 69.488 84.6713 69.3707 84.6393 69.296C84.6073 69.2213 84.546 69.1707 84.4553 69.144C84.37 69.112 84.2313 69.096 84.0393 69.096C84.0233 69.096 84.0153 69.08 84.0153 69.048C84.0153 69.016 84.0233 69 84.0393 69H87.3033C87.3566 69 87.3833 69.024 87.3833 69.072L87.3993 70.08C87.3993 70.096 87.3833 70.1067 87.3513 70.112C87.3246 70.112 87.3086 70.104 87.3033 70.088C87.266 69.7947 87.162 69.5707 86.9913 69.416C86.8206 69.2613 86.5966 69.184 86.3193 69.184H85.9113C85.682 69.184 85.5246 69.2187 85.4393 69.288C85.3593 69.352 85.3193 69.4747 85.3193 69.656V73.32C85.3193 73.4907 85.3406 73.616 85.3833 73.696C85.4313 73.7707 85.5193 73.824 85.6473 73.856C85.7753 73.888 85.978 73.904 86.2553 73.904C86.266 73.904 86.2713 73.92 86.2713 73.952C86.2713 73.984 86.266 74 86.2553 74C86.0366 74 85.866 73.9973 85.7433 73.992L84.9913 73.984L84.4313 73.992C84.33 73.9973 84.1913 74 84.0153 74ZM86.9033 72.256C86.9033 72.0267 86.834 71.8587 86.6953 71.752C86.5566 71.64 86.3353 71.584 86.0313 71.584H85.0153V71.4H86.0553C86.3433 71.4 86.554 71.352 86.6873 71.256C86.826 71.16 86.8953 71.016 86.8953 70.824C86.8953 70.8133 86.9113 70.808 86.9433 70.808C86.9753 70.808 86.9913 70.8133 86.9913 70.824L86.9833 71.496C86.9833 71.656 86.986 71.776 86.9913 71.856L86.9993 72.256C86.9993 72.2667 86.9833 72.272 86.9513 72.272C86.9193 72.272 86.9033 72.2667 86.9033 72.256ZM89.4609 73.352C89.4609 73.5173 89.4742 73.6373 89.5009 73.712C89.5329 73.7867 89.5915 73.8373 89.6769 73.864C89.7675 73.8907 89.9115 73.904 90.1089 73.904C90.1195 73.904 90.1249 73.92 90.1249 73.952C90.1249 73.984 90.1195 74 90.1089 74C89.9382 74 89.8049 73.9973 89.7089 73.992L89.1329 73.984L88.5729 73.992C88.4715 73.9973 88.3329 74 88.1569 74C88.1462 74 88.1409 73.984 88.1409 73.952C88.1409 73.92 88.1462 73.904 88.1569 73.904C88.3489 73.904 88.4902 73.8907 88.5809 73.864C88.6715 73.8373 88.7329 73.7867 88.7649 73.712C88.8022 73.632 88.8209 73.512 88.8209 73.352V69.648C88.8209 69.488 88.8022 69.3707 88.7649 69.296C88.7329 69.2213 88.6715 69.1707 88.5809 69.144C88.4902 69.112 88.3489 69.096 88.1569 69.096C88.1462 69.096 88.1409 69.08 88.1409 69.048C88.1409 69.016 88.1462 69 88.1569 69L88.5729 69.008C88.8075 69.0187 88.9942 69.024 89.1329 69.024C89.2875 69.024 89.4822 69.0187 89.7169 69.008L90.1089 69C90.1195 69 90.1249 69.016 90.1249 69.048C90.1249 69.08 90.1195 69.096 90.1089 69.096C89.9169 69.096 89.7755 69.112 89.6849 69.144C89.5995 69.176 89.5409 69.232 89.5089 69.312C89.4769 69.3867 89.4609 69.504 89.4609 69.664V73.352ZM91.4526 69.184L91.6606 69.2V73.088C91.6606 73.3653 91.7112 73.5707 91.8126 73.704C91.9192 73.8373 92.0792 73.904 92.2926 73.904C92.3032 73.904 92.3086 73.92 92.3086 73.952C92.3086 73.984 92.3032 74 92.2926 74C92.1539 74 92.0472 73.9973 91.9726 73.992L91.5646 73.984L91.1326 73.992C91.0526 73.9973 90.9352 74 90.7806 74C90.7699 74 90.7646 73.984 90.7646 73.952C90.7646 73.92 90.7699 73.904 90.7806 73.904C91.0099 73.904 91.1779 73.8373 91.2846 73.704C91.3966 73.5707 91.4526 73.3653 91.4526 73.088V69.184ZM95.5006 74.104C95.5006 74.1147 95.4872 74.1227 95.4606 74.128C95.4392 74.1333 95.4232 74.1307 95.4126 74.12L91.6446 69.656C91.4686 69.448 91.3112 69.304 91.1726 69.224C91.0339 69.1387 90.8952 69.096 90.7566 69.096C90.7459 69.096 90.7406 69.08 90.7406 69.048C90.7406 69.016 90.7459 69 90.7566 69L91.0686 69.008C91.1326 69.0133 91.2232 69.016 91.3406 69.016L91.7486 69.008C91.8019 69.0027 91.8632 69 91.9326 69C91.9752 69 92.0072 69.0107 92.0286 69.032C92.0499 69.0533 92.0819 69.096 92.1246 69.16L92.3166 69.416L95.4366 73.176L95.5006 74.104ZM95.5006 74.104L95.3006 73.856V69.92C95.3006 69.6427 95.2499 69.4373 95.1486 69.304C95.0472 69.1653 94.8899 69.096 94.6766 69.096C94.6659 69.096 94.6606 69.08 94.6606 69.048C94.6606 69.016 94.6659 69 94.6766 69L94.9966 69.008C95.1566 69.0187 95.2926 69.024 95.4046 69.024C95.5006 69.024 95.6392 69.0187 95.8206 69.008L96.1566 69C96.1672 69 96.1726 69.016 96.1726 69.048C96.1726 69.08 96.1672 69.096 96.1566 69.096C95.7192 69.096 95.5006 69.3707 95.5006 69.92V74.104ZM98.8003 74.032C98.635 74.032 98.4483 74.024 98.2403 74.008C98.1603 74.0027 98.0616 73.9973 97.9443 73.992C97.8323 73.9867 97.7043 73.984 97.5603 73.984L97.0003 73.992C96.899 73.9973 96.7603 74 96.5843 74C96.5736 74 96.5683 73.984 96.5683 73.952C96.5683 73.92 96.5736 73.904 96.5843 73.904C96.7763 73.904 96.9176 73.8907 97.0083 73.864C97.099 73.8373 97.1603 73.7867 97.1923 73.712C97.2296 73.632 97.2483 73.512 97.2483 73.352V69.648C97.2483 69.488 97.2323 69.3707 97.2003 69.296C97.1683 69.2213 97.107 69.1707 97.0163 69.144C96.931 69.112 96.7923 69.096 96.6003 69.096C96.5843 69.096 96.5763 69.08 96.5763 69.048C96.5763 69.016 96.5843 69 96.6003 69L97.0003 69.008C97.235 69.0187 97.4216 69.024 97.5603 69.024C97.7576 69.024 97.9603 69.016 98.1683 69C98.4243 68.9893 98.5976 68.984 98.6883 68.984C99.2376 68.984 99.7256 69.0907 100.152 69.304C100.579 69.5173 100.91 69.808 101.144 70.176C101.379 70.544 101.496 70.9573 101.496 71.416C101.496 71.9333 101.374 72.392 101.128 72.792C100.888 73.1867 100.56 73.4933 100.144 73.712C99.7336 73.9253 99.2856 74.032 98.8003 74.032ZM98.7203 73.888C99.1203 73.888 99.475 73.8 99.7843 73.624C100.094 73.4427 100.334 73.1813 100.504 72.84C100.68 72.4933 100.768 72.0773 100.768 71.592C100.768 71.128 100.686 70.7093 100.52 70.336C100.355 69.9573 100.12 69.6613 99.8163 69.448C99.5176 69.2293 99.1683 69.12 98.7683 69.12C98.539 69.12 98.363 69.1333 98.2403 69.16C98.1176 69.1867 98.027 69.24 97.9683 69.32C97.9096 69.3947 97.8803 69.5093 97.8803 69.664V73.264C97.8803 73.4187 97.9016 73.5413 97.9443 73.632C97.9923 73.7173 98.075 73.7813 98.1923 73.824C98.315 73.8667 98.491 73.888 98.7203 73.888ZM105.358 71.736H107.534L107.59 71.912H105.262L105.358 71.736ZM109.398 73.904C109.424 73.904 109.438 73.92 109.438 73.952C109.438 73.984 109.424 74 109.398 74C109.296 74 109.139 73.9947 108.926 73.984C108.702 73.9733 108.542 73.968 108.446 73.968C108.323 73.968 108.171 73.9733 107.99 73.984C107.808 73.9947 107.672 74 107.582 74C107.56 74 107.55 73.984 107.55 73.952C107.55 73.92 107.56 73.904 107.582 73.904C107.763 73.904 107.894 73.888 107.974 73.856C108.054 73.8187 108.094 73.7547 108.094 73.664C108.094 73.5733 108.054 73.448 107.974 73.288L106.254 69.712L106.51 69.328L104.95 72.944C104.875 73.1253 104.838 73.2747 104.838 73.392C104.838 73.5627 104.904 73.6907 105.038 73.776C105.171 73.8613 105.363 73.904 105.614 73.904C105.64 73.904 105.654 73.92 105.654 73.952C105.654 73.984 105.64 74 105.614 74C105.518 74 105.379 73.9947 105.198 73.984C104.995 73.9733 104.819 73.968 104.67 73.968C104.531 73.968 104.366 73.9733 104.174 73.984C104.003 73.9947 103.864 74 103.758 74C103.736 74 103.726 73.984 103.726 73.952C103.726 73.92 103.736 73.904 103.758 73.904C103.907 73.904 104.032 73.8747 104.134 73.816C104.24 73.7573 104.342 73.656 104.438 73.512C104.534 73.368 104.643 73.1547 104.766 72.872L106.47 68.944C106.475 68.928 106.494 68.92 106.526 68.92C106.558 68.9147 106.576 68.9227 106.582 68.944L108.502 72.904C108.688 73.2933 108.843 73.5573 108.966 73.696C109.094 73.8347 109.238 73.904 109.398 73.904ZM115.785 69.664C115.785 69.504 115.769 69.3867 115.737 69.312C115.705 69.232 115.641 69.176 115.545 69.144C115.449 69.112 115.3 69.096 115.097 69.096C115.081 69.096 115.073 69.08 115.073 69.048C115.073 69.016 115.081 69 115.097 69L115.473 69.008C115.718 69.0187 115.929 69.024 116.105 69.024C116.254 69.024 116.446 69.0187 116.681 69.008L117.089 69C117.105 69 117.113 69.016 117.113 69.048C117.113 69.08 117.105 69.096 117.089 69.096C116.892 69.096 116.745 69.112 116.649 69.144C116.558 69.1707 116.497 69.2213 116.465 69.296C116.433 69.3707 116.417 69.488 116.417 69.648V73.352C116.417 73.512 116.433 73.632 116.465 73.712C116.497 73.7867 116.558 73.8373 116.649 73.864C116.745 73.8907 116.892 73.904 117.089 73.904C117.105 73.904 117.113 73.92 117.113 73.952C117.113 73.984 117.105 74 117.089 74C116.918 74 116.782 73.9973 116.681 73.992L116.105 73.984L115.473 73.992C115.382 73.9973 115.257 74 115.097 74C115.081 74 115.073 73.984 115.073 73.952C115.073 73.92 115.081 73.904 115.097 73.904C115.305 73.904 115.454 73.8907 115.545 73.864C115.641 73.8373 115.705 73.7867 115.737 73.712C115.769 73.6373 115.785 73.5173 115.785 73.352V69.664ZM112.529 71.304H116.065V71.488H112.529V71.304ZM112.233 69.648C112.233 69.488 112.217 69.3707 112.185 69.296C112.153 69.2213 112.092 69.1707 112.001 69.144C111.91 69.112 111.766 69.096 111.569 69.096C111.553 69.096 111.545 69.08 111.545 69.048C111.545 69.016 111.553 69 111.569 69L111.977 69.008C112.201 69.0187 112.388 69.024 112.537 69.024C112.702 69.024 112.908 69.0187 113.153 69.008L113.561 69C113.572 69 113.577 69.016 113.577 69.048C113.577 69.08 113.572 69.096 113.561 69.096C113.358 69.096 113.209 69.112 113.113 69.144C113.017 69.176 112.95 69.232 112.913 69.312C112.881 69.3867 112.865 69.504 112.865 69.664V73.352C112.865 73.512 112.881 73.632 112.913 73.712C112.95 73.7867 113.014 73.8373 113.105 73.864C113.201 73.8907 113.353 73.904 113.561 73.904C113.572 73.904 113.577 73.92 113.577 73.952C113.577 73.984 113.572 74 113.561 74C113.385 74 113.249 73.9973 113.153 73.992L112.537 73.984L111.969 73.992C111.868 73.9973 111.729 74 111.553 74C111.542 74 111.537 73.984 111.537 73.952C111.537 73.92 111.542 73.904 111.553 73.904C111.75 73.904 111.894 73.8907 111.985 73.864C112.081 73.8373 112.145 73.7867 112.177 73.712C112.214 73.632 112.233 73.512 112.233 73.352V69.648ZM120.303 74.096C119.807 74.096 119.364 73.9813 118.975 73.752C118.591 73.5173 118.292 73.2027 118.079 72.808C117.871 72.408 117.767 71.9733 117.767 71.504C117.767 70.9547 117.906 70.4853 118.183 70.096C118.46 69.7013 118.815 69.4053 119.247 69.208C119.684 69.0107 120.13 68.912 120.583 68.912C121.09 68.912 121.535 69.032 121.919 69.272C122.303 69.5067 122.596 69.8187 122.799 70.208C123.007 70.5973 123.111 71.0107 123.111 71.448C123.111 71.9333 122.983 72.3787 122.727 72.784C122.471 73.1893 122.127 73.5093 121.695 73.744C121.268 73.9787 120.804 74.096 120.303 74.096ZM120.583 73.92C120.924 73.92 121.231 73.832 121.503 73.656C121.775 73.48 121.988 73.224 122.143 72.888C122.303 72.5467 122.383 72.1413 122.383 71.672C122.383 71.176 122.295 70.7333 122.119 70.344C121.948 69.9547 121.7 69.6507 121.375 69.432C121.055 69.2133 120.682 69.104 120.255 69.104C119.7 69.104 119.268 69.2933 118.959 69.672C118.65 70.0453 118.495 70.5627 118.495 71.224C118.495 71.7307 118.583 72.1893 118.759 72.6C118.935 73.0107 119.18 73.3333 119.495 73.568C119.815 73.8027 120.178 73.92 120.583 73.92ZM124.532 69.184L124.732 69.2L124.652 73.088C124.647 73.3653 124.697 73.5707 124.804 73.704C124.911 73.8373 125.084 73.904 125.324 73.904C125.34 73.904 125.348 73.92 125.348 73.952C125.348 73.984 125.34 74 125.324 74C125.18 74 125.068 73.9973 124.988 73.992L124.548 73.984L124.108 73.992C124.033 73.9973 123.924 74 123.78 74C123.769 74 123.764 73.984 123.764 73.952C123.764 73.92 123.769 73.904 123.78 73.904C124.223 73.904 124.447 73.632 124.452 73.088L124.532 69.184ZM130.052 73.904C130.063 73.904 130.068 73.92 130.068 73.952C130.068 73.984 130.063 74 130.052 74C129.876 74 129.737 73.9973 129.636 73.992L129.076 73.984L128.54 73.992C128.449 73.9973 128.324 74 128.164 74C128.153 74 128.148 73.984 128.148 73.952C128.148 73.92 128.153 73.904 128.164 73.904C128.345 73.904 128.479 73.8907 128.564 73.864C128.649 73.832 128.705 73.7787 128.732 73.704C128.759 73.6293 128.767 73.512 128.756 73.352L128.596 69.584L128.908 69.136L126.836 73.944C126.825 73.9653 126.804 73.976 126.772 73.976C126.74 73.976 126.719 73.9653 126.708 73.944L124.62 69.664C124.524 69.4667 124.412 69.3227 124.284 69.232C124.156 69.1413 124.007 69.096 123.836 69.096C123.825 69.096 123.82 69.08 123.82 69.048C123.82 69.016 123.825 69 123.836 69L124.156 69.008C124.22 69.0133 124.303 69.016 124.404 69.016C124.521 69.016 124.617 69.0133 124.692 69.008C124.767 69.0027 124.825 69 124.868 69C124.937 69 124.993 69.024 125.036 69.072C125.079 69.12 125.145 69.2347 125.236 69.416L127.052 73.104L126.756 73.616L128.684 69.2C128.737 69.0667 128.817 69 128.924 69C128.956 69 128.999 69.0027 129.052 69.008C129.105 69.0133 129.175 69.016 129.26 69.016L129.668 69.008C129.732 69.0027 129.825 69 129.948 69C129.959 69 129.964 69.016 129.964 69.048C129.964 69.08 129.959 69.096 129.948 69.096C129.681 69.096 129.492 69.1387 129.38 69.224C129.268 69.3093 129.215 69.4587 129.22 69.672L129.388 73.352C129.399 73.5173 129.42 73.6373 129.452 73.712C129.484 73.7867 129.543 73.8373 129.628 73.864C129.719 73.8907 129.86 73.904 130.052 73.904ZM130.578 74C130.562 74 130.554 73.984 130.554 73.952C130.554 73.92 130.562 73.904 130.578 73.904C130.77 73.904 130.909 73.8907 130.994 73.864C131.085 73.8373 131.146 73.7867 131.178 73.712C131.21 73.632 131.226 73.512 131.226 73.352V69.648C131.226 69.488 131.21 69.3707 131.178 69.296C131.146 69.2213 131.085 69.1707 130.994 69.144C130.909 69.112 130.77 69.096 130.578 69.096C130.562 69.096 130.554 69.08 130.554 69.048C130.554 69.016 130.562 69 130.578 69H133.842C133.896 69 133.922 69.024 133.922 69.072L133.938 70.08C133.938 70.096 133.922 70.1067 133.89 70.112C133.864 70.112 133.848 70.104 133.842 70.088C133.805 69.7947 133.701 69.5707 133.53 69.416C133.36 69.2613 133.136 69.184 132.858 69.184H132.45C132.216 69.184 132.058 69.2187 131.978 69.288C131.898 69.3573 131.858 69.488 131.858 69.68V73.32C131.858 73.512 131.893 73.6427 131.962 73.712C132.037 73.7813 132.184 73.816 132.402 73.816H132.93C133.229 73.816 133.477 73.728 133.674 73.552C133.877 73.3707 134.016 73.1147 134.09 72.784C134.09 72.7733 134.101 72.768 134.122 72.768C134.138 72.768 134.152 72.7733 134.162 72.784C134.178 72.7893 134.186 72.7947 134.186 72.8C134.133 73.184 134.106 73.544 134.106 73.88C134.106 73.9227 134.098 73.9547 134.082 73.976C134.066 73.992 134.034 74 133.986 74H130.578ZM133.538 72.16C133.538 71.9307 133.472 71.7627 133.338 71.656C133.21 71.544 133.005 71.488 132.722 71.488H131.554V71.304H132.738C133.01 71.304 133.21 71.2587 133.338 71.168C133.466 71.072 133.53 70.9253 133.53 70.728C133.53 70.7173 133.544 70.712 133.57 70.712C133.602 70.712 133.618 70.7173 133.618 70.728L133.61 71.4L133.618 71.76C133.629 71.9307 133.634 72.064 133.634 72.16C133.634 72.1707 133.618 72.176 133.586 72.176C133.554 72.176 133.538 72.1707 133.538 72.16Z" fill="black"/>
<defs>
<clipPath id="clip0_304_14">
<rect width="40" height="40" fill="white" transform="translate(43)"/>
</clipPath>
</defs>
</svg>
