<svg width="157" height="40" viewBox="0 0 157 40" fill="none" xmlns="http://www.w3.org/2000/svg">
<g clip-path="url(#clip0_303_17)">
<path d="M35.5556 7.77777H4.44444C3.2657 7.77777 2.13524 8.24602 1.30175 9.07952C0.468253 9.91301 0 11.0435 0 12.2222L0 28.8889C0 30.0676 0.468253 31.1981 1.30175 32.0316C2.13524 32.8651 3.2657 33.3333 4.44444 33.3333H17.1289C17.7067 33.9955 18.77 34.4444 20 34.4444C21.23 34.4444 22.2944 33.9955 22.8711 33.3333H35.5556C36.7343 33.3333 37.8648 32.8651 38.6983 32.0316C39.5317 31.1981 40 30.0676 40 28.8889V12.2222C40 11.0435 39.5317 9.91301 38.6983 9.07952C37.8648 8.24602 36.7343 7.77777 35.5556 7.77777Z" fill="#226699"/>
<path d="M22.2218 30C22.2218 30.5894 21.9877 31.1546 21.5709 31.5713C21.1542 31.9881 20.5889 32.2222 19.9996 32.2222C19.4102 32.2222 18.845 31.9881 18.4282 31.5713C18.0115 31.1546 17.7773 30.5894 17.7773 30V9.99999C17.7773 9.41062 18.0115 8.84539 18.4282 8.42864C18.845 8.0119 19.4102 7.77777 19.9996 7.77777C20.5889 7.77777 21.1542 8.0119 21.5709 8.42864C21.9877 8.84539 22.2218 9.41062 22.2218 9.99999V30Z" fill="#292F33"/>
<path d="M20.0004 28.8889C20.0004 29.4783 19.7663 30.0435 19.3496 30.4603C18.9328 30.877 18.3676 31.1111 17.7782 31.1111H4.44488C3.85551 31.1111 3.29028 30.877 2.87353 30.4603C2.45678 30.0435 2.22266 29.4783 2.22266 28.8889V8.88891C2.22266 8.29954 2.45678 7.73431 2.87353 7.31756C3.29028 6.90081 3.85551 6.66669 4.44488 6.66669H17.7782C18.3676 6.66669 18.9328 6.90081 19.3496 7.31756C19.7663 7.73431 20.0004 8.29954 20.0004 8.88891V28.8889Z" fill="#99AAB5"/>
<path d="M19.9999 28.8889C18.8899 26.6689 15.9366 26.6667 15.5554 26.6667C13.3332 26.6667 9.99989 28.8889 6.66656 28.8889C5.55545 28.8889 4.44434 27.8933 4.44434 26.6667V8.8889C4.44434 7.66224 5.55545 6.66668 6.66656 6.66668C10.2832 6.66668 13.3332 4.44446 15.5554 4.44446C18.8888 4.44446 19.9999 6.55112 19.9999 7.77779V28.8889Z" fill="#E1E8ED"/>
<path d="M37.7778 28.8889C37.7778 29.4783 37.5437 30.0435 37.1269 30.4603C36.7102 30.877 36.1449 31.1111 35.5556 31.1111H22.2222C21.6329 31.1111 21.0676 30.877 20.6509 30.4603C20.2341 30.0435 20 29.4783 20 28.8889V8.88891C20 8.29954 20.2341 7.73431 20.6509 7.31756C21.0676 6.90081 21.6329 6.66669 22.2222 6.66669H35.5556C36.1449 6.66669 36.7102 6.90081 37.1269 7.31756C37.5437 7.73431 37.7778 8.29954 37.7778 8.88891V28.8889Z" fill="#99AAB5"/>
<path d="M20 28.8889C21.11 26.6689 24.0633 26.6667 24.4444 26.6667C26.6667 26.6667 30 28.8889 33.3333 28.8889C34.4444 28.8889 35.5556 27.8933 35.5556 26.6667V8.8889C35.5556 7.66224 34.4444 6.66668 33.3333 6.66668C29.7156 6.66668 26.6667 4.44446 24.4444 4.44446C21.1111 4.44446 20 6.55112 20 7.77779V28.8889Z" fill="#CCD6DD"/>
</g>
<path d="M56.4228 17.46L56.4028 15.6V14.66C56.3494 14.3267 56.0628 14.1333 55.5428 14.08L54.5428 13.98V13.24H58.3228C58.4828 13.7067 61.3428 17.5667 66.9028 24.82C66.8494 24.0733 66.8228 22.7467 66.8228 20.84C66.8228 18.92 66.7961 17.08 66.7428 15.32C66.7294 14.8533 66.6294 14.54 66.4428 14.38C66.2561 14.2067 65.7561 14.08 64.9428 14V13.24H69.7828V13.96C68.8894 14.04 68.3494 14.22 68.1628 14.5L68.0428 15.12C67.9494 18.36 67.9028 21.56 67.9028 24.72L67.9428 28H66.7628C66.2294 27.2 65.5561 26.2867 64.7428 25.26C63.9294 24.22 63.2694 23.38 62.7628 22.74C61.7494 21.4333 60.0028 19.2067 57.5228 16.06V22.2C57.5894 24.7467 57.6228 26.1467 57.6228 26.4C57.6228 26.6533 57.7694 26.84 58.0628 26.96C58.3694 27.08 58.7961 27.1667 59.3428 27.22V28H54.6228V27.28C55.6628 27.1867 56.2161 26.8933 56.2828 26.4C56.3761 25.7333 56.4228 23.2667 56.4228 19V17.46ZM71.3696 26.82C71.0896 26.4333 70.8563 25.9 70.6696 25.22C70.483 24.5267 70.3896 23.66 70.3896 22.62C70.3896 21.5667 70.663 20.5933 71.2096 19.7C71.5696 19.14 72.1963 18.6333 73.0896 18.18C73.983 17.7133 74.723 17.48 75.3096 17.48C76.4963 17.48 77.5096 17.86 78.3496 18.62C79.1896 19.38 79.6096 20.5667 79.6096 22.18C79.6096 23.78 79.3163 25.0267 78.7296 25.92C77.943 26.9733 77.1763 27.6667 76.4296 28C75.923 28.2267 75.3963 28.34 74.8496 28.34C74.303 28.34 73.8563 28.3 73.5096 28.22C73.163 28.1533 72.7896 28 72.3896 27.76C72.003 27.52 71.663 27.2067 71.3696 26.82ZM72.2896 22.88C72.2896 24.32 72.563 25.3533 73.1096 25.98C73.6696 26.6067 74.4763 26.92 75.5296 26.92C75.9296 26.92 76.223 26.8867 76.4096 26.82C77.3296 26.46 77.7896 25.0733 77.7896 22.66C77.7896 21.5267 77.6363 20.7 77.3296 20.18C77.0363 19.6467 76.523 19.2667 75.7896 19.04C75.4163 18.9467 75.0763 18.9 74.7696 18.9C74.463 18.9 74.2363 18.9067 74.0896 18.92C73.9563 18.9333 73.7763 18.9733 73.5496 19.04C73.323 19.1067 73.1496 19.22 73.0296 19.38C72.9096 19.5267 72.783 19.7333 72.6496 20C72.4096 20.48 72.2896 21.44 72.2896 22.88ZM82.0017 24.24L82.0617 19.04H80.3217V18.44L82.0617 18.1V16.26L83.6017 15.78C83.8017 15.78 83.9017 15.88 83.9017 16.08L83.8617 17.3V17.92H86.4017L86.3417 19.04H83.8617L83.8017 23.98C83.8017 25.0067 83.8617 25.7467 83.9817 26.2C84.115 26.6533 84.355 26.88 84.7017 26.88C85.0483 26.88 85.5483 26.6867 86.2017 26.3L86.6217 26.7C85.595 27.7667 84.755 28.3 84.1017 28.3C83.235 28.3 82.6683 28.0067 82.4017 27.42C82.135 26.8333 82.0017 25.7733 82.0017 24.24ZM87.8609 20.02C88.0742 19.5267 88.5876 18.9933 89.4009 18.42C90.2142 17.8333 90.9476 17.54 91.6009 17.54C92.2676 17.54 92.8342 17.6133 93.3009 17.76C93.7676 17.9067 94.1342 18.1267 94.4009 18.42C94.6676 18.7 94.8809 18.98 95.0409 19.26C95.2142 19.5267 95.3276 19.8667 95.3809 20.28C95.4876 20.9467 95.5409 21.4533 95.5409 21.8V22.38C95.1142 22.6467 94.4142 22.78 93.4409 22.78H89.3409C89.3409 24.2067 89.4476 25.12 89.6609 25.52C89.9809 26.1067 90.3809 26.4733 90.8609 26.62C91.1676 26.7133 91.5276 26.76 91.9409 26.76C93.1009 26.76 94.1609 26.2867 95.1209 25.34L95.5609 25.8C95.5076 25.8533 95.3809 25.9867 95.1809 26.2C94.9809 26.4 94.8476 26.5333 94.7809 26.6C94.7142 26.6667 94.5876 26.7933 94.4009 26.98C94.2142 27.1533 94.0676 27.2733 93.9609 27.34C93.8676 27.4067 93.7276 27.5067 93.5409 27.64C93.3676 27.7733 93.2142 27.8667 93.0809 27.92C92.9609 27.9733 92.8076 28.04 92.6209 28.12C92.3142 28.24 91.9542 28.3 91.5409 28.3C90.7409 28.3 90.0542 28.1467 89.4809 27.84C88.9209 27.52 88.5009 27.0933 88.2209 26.56C87.6876 25.5867 87.4209 24.4267 87.4209 23.08C87.4209 21.7333 87.5676 20.7133 87.8609 20.02ZM89.3809 21.88H90.5209C92.2942 21.88 93.3476 21.76 93.6809 21.52C93.6809 20.9467 93.5876 20.4533 93.4009 20.04C93.0542 19.24 92.4409 18.84 91.5609 18.84C90.6809 18.84 90.0942 19.0667 89.8009 19.52C89.5209 19.96 89.3809 20.7467 89.3809 21.88ZM98.7968 23.36C98.3168 23.1733 97.9035 22.8733 97.5568 22.46C97.2235 22.0467 97.0568 21.5133 97.0568 20.86C97.0568 20.2067 97.1702 19.7067 97.3968 19.36C97.8768 18.5867 98.3302 18.0867 98.7568 17.86C99.1835 17.62 99.7302 17.5 100.397 17.5C101.064 17.5 101.664 17.6133 102.197 17.84C102.344 17.8933 102.45 17.9467 102.517 18C102.757 18.1467 102.877 18.42 102.877 18.82C102.877 18.86 102.87 18.96 102.857 19.12C102.83 19.4667 102.817 20.02 102.817 20.78H102.077C102.064 20.6067 102.004 20.3533 101.897 20.02C101.804 19.6867 101.697 19.4333 101.577 19.26C101.31 18.8733 100.81 18.68 100.077 18.68C99.3702 18.68 98.9035 18.8533 98.6768 19.2C98.4902 19.48 98.3968 19.7933 98.3968 20.14C98.3968 20.4733 98.5635 20.7733 98.8968 21.04C99.2302 21.2933 99.6368 21.5 100.117 21.66C100.597 21.82 101.077 22 101.557 22.2C102.05 22.3867 102.464 22.7067 102.797 23.16C103.13 23.6 103.297 24.1667 103.297 24.86C103.297 25.5533 103.197 26.0667 102.997 26.4C102.637 26.9733 102.21 27.4533 101.717 27.84C101.517 27.9867 101.204 28.1067 100.777 28.2C100.35 28.2933 100.03 28.34 99.8168 28.34C98.3902 28.34 97.5368 28.1 97.2568 27.62C97.1502 27.4467 97.0968 27.22 97.0968 26.94C97.0968 25.86 97.1235 25.2 97.1768 24.96C97.2435 24.7067 97.3835 24.58 97.5968 24.58C97.8235 24.58 97.9635 24.6733 98.0168 24.86C98.0702 25.0467 98.1168 25.3067 98.1568 25.64C98.3035 26.5867 98.9568 27.06 100.117 27.06C100.704 27.06 101.164 26.9267 101.497 26.66C101.83 26.3933 101.997 26.0333 101.997 25.58C101.997 25.1133 101.824 24.7467 101.477 24.48C101.144 24.2133 100.73 24.0067 100.237 23.86C99.7568 23.7 99.2768 23.5333 98.7968 23.36ZM108.251 20.6L108.211 26.34C108.211 26.7533 108.491 27.0267 109.051 27.16C109.278 27.2 109.598 27.2333 110.011 27.26V28H104.471V27.26C104.871 27.2333 105.178 27.2 105.391 27.16C105.618 27.12 105.818 27.0333 105.991 26.9C106.178 26.7667 106.271 26.58 106.271 26.34C106.271 21.7267 106.225 17.8733 106.131 14.78C106.118 14.4867 106.011 14.2933 105.811 14.2C105.625 14.0933 105.271 14.0267 104.751 14L104.471 13.98V13.24H110.011V13.98L109.731 14C109.211 14.0267 108.851 14.0933 108.651 14.2C108.465 14.2933 108.365 14.4867 108.351 14.78C108.311 17.14 108.285 18.7933 108.271 19.74H116.491C116.478 18.1267 116.445 16.4733 116.391 14.78C116.378 14.4867 116.271 14.2933 116.071 14.2C115.885 14.0933 115.531 14.0267 115.011 14L114.731 13.98V13.24H120.271V13.98L119.991 14C119.471 14.0267 119.111 14.0933 118.911 14.2C118.725 14.2933 118.625 14.4867 118.611 14.78C118.518 17.4467 118.471 21.3 118.471 26.34C118.471 26.7533 118.758 27.0267 119.331 27.16C119.545 27.2 119.858 27.2333 120.271 27.26V28H114.731V27.26C115.131 27.2333 115.438 27.2 115.651 27.16C115.878 27.12 116.078 27.0333 116.251 26.9C116.438 26.7667 116.531 26.58 116.531 26.34C116.531 24.5 116.518 22.5867 116.491 20.6H108.251ZM128.684 25.04L128.724 20.3C128.724 19.34 128.637 18.8133 128.464 18.72C128.371 18.6667 128.204 18.64 127.964 18.64H127.324L127.284 17.98C128.324 17.8867 129.071 17.7867 129.524 17.68C129.991 17.56 130.244 17.5 130.284 17.5C130.524 17.5 130.644 17.6 130.644 17.8C130.644 19.48 130.617 21.1133 130.564 22.7C130.511 24.2867 130.484 25.2267 130.484 25.52C130.484 25.8133 130.631 26.2 130.924 26.68C131.231 27.1467 131.384 27.42 131.384 27.5C131.384 27.5667 131.324 27.62 131.204 27.66C130.271 27.9667 129.744 28.12 129.624 28.12C129.517 28.12 129.404 28.0267 129.284 27.84C129.177 27.64 129.077 27.4 128.984 27.12C128.891 26.84 128.837 26.6933 128.824 26.68C128.024 27.24 127.291 27.6333 126.624 27.86C125.957 28.0733 125.417 28.18 125.004 28.18C124.604 28.18 124.177 27.9867 123.724 27.6C123.284 27.2133 122.991 26.7333 122.844 26.16C122.711 25.7333 122.644 24.9067 122.644 23.68V20.46C122.644 20.1267 122.584 19.6667 122.464 19.08C122.437 18.9867 122.351 18.9067 122.204 18.84C122.057 18.7733 121.944 18.74 121.864 18.74C121.784 18.7267 121.611 18.72 121.344 18.72L121.304 18.04C122.157 17.9467 122.831 17.8333 123.324 17.7C123.817 17.5667 124.091 17.5 124.144 17.5C124.384 17.5 124.504 17.6 124.504 17.8L124.424 23.64C124.424 24.6267 124.477 25.28 124.584 25.6C124.704 25.92 124.884 26.1667 125.124 26.34C125.377 26.5133 125.624 26.6 125.864 26.6C126.117 26.6 126.464 26.5533 126.904 26.46C127.357 26.3667 127.724 26.2467 128.004 26.1C128.297 25.94 128.484 25.8067 128.564 25.7C128.644 25.58 128.684 25.36 128.684 25.04ZM132.177 12.54C133.164 12.4467 133.897 12.3467 134.377 12.24C134.87 12.12 135.137 12.06 135.177 12.06C135.404 12.06 135.517 12.16 135.517 12.36V13.22L135.437 18.76C137.024 17.8933 138.05 17.46 138.517 17.46C140.01 17.46 141.004 17.9067 141.497 18.8C141.937 19.5867 142.157 20.7867 142.157 22.4C142.157 24.0133 141.87 25.2533 141.297 26.12C141.15 26.32 140.837 26.6333 140.357 27.06C139.89 27.4867 139.43 27.8 138.977 28C138.524 28.2 137.95 28.3 137.257 28.3C136.577 28.3 135.877 28.1867 135.157 27.96C134.437 27.72 133.95 27.42 133.697 27.06C133.684 25.42 133.677 23.6 133.677 21.6C133.677 16.4933 133.604 13.7933 133.457 13.5C133.377 13.3133 133.11 13.2133 132.657 13.2H132.217L132.177 12.54ZM135.417 20.94C135.404 21.74 135.397 22.76 135.397 24C135.397 25.2267 135.464 25.9067 135.597 26.04C135.757 26.24 136.097 26.44 136.617 26.64C137.137 26.8267 137.65 26.92 138.157 26.92C138.664 26.92 139.057 26.84 139.337 26.68C139.63 26.5067 139.844 26.1867 139.977 25.72C140.124 25.2533 140.224 24.6333 140.277 23.86C140.344 23.0867 140.377 22.46 140.377 21.98C140.377 21.5 140.284 21.02 140.097 20.54C139.924 20.0467 139.69 19.6867 139.397 19.46C138.864 19.0467 138.31 18.84 137.737 18.84C137.177 18.84 136.404 19.1 135.417 19.62V20.94Z" fill="black"/>
<defs>
<clipPath id="clip0_303_17">
<rect width="40" height="40" fill="white"/>
</clipPath>
</defs>
</svg>
